<?xml version="1.0" encoding="UTF-8" standalone="no"?>
<svg fill="white" height="24px" stroke="white" viewBox="0 0 24 24" width="24px" version="1.1" id="svg10"
	xmlns="http://www.w3.org/2000/svg"
	xmlns:svg="http://www.w3.org/2000/svg">
	<path d="M 221.97407,347.57575 V 332.1212 316.66665 H 140.86899 83.426168 l 35.483472,-30.9091 h 103.06443 v -15.45454 -15.45455 l 25.34533,25.75758 25.34534,25.75758 -25.34534,20.60607 z M 90.178318,273.54846 v -39.30607 h -15.2072 -15.2072 v 65.93941 z" stroke-width="0" id="path2" transform="matrix(0.09863748,0,0,-0.0970588,-3.3949621,34.735285)" />
	<path d="m 221.97407,234.24239 v -25.75758 -12.51658 l 30.4144,-26.48201 v 23.54404 41.21213 h -15.2072 z m -131.795752,-20.60607 -25.34533,-25.75758 -25.34534,-25.75758 25.34534,-20.60607 25.34533,-20.60606 v 15.45455 15.45455 h 81.105082 58.45648 l -35.48347,30.9091 H 156.07619 90.178318 v 15.45455 z" stroke-width="0" id="path4" transform="matrix(0.09863748,0,0,-0.0970588,-3.3949621,34.735285)" />
	<path d="M 39.48765,316.66665 252.38846,131.21205 272.4738,153.30892 59.57299,338.76352 Z" stroke-width="0" id="path6" transform="matrix(0.09863748,0,0,-0.0970588,-3.3949621,34.735285)" />
</svg>
