<?xml version="1.0" encoding="UTF-8" standalone="no"?>
<svg stroke="currentColor" fill="currentColor" stroke-width="0" version="1.1" viewBox="0 0 24 24" height="24" width="24" id="svg139"
	xmlns="http://www.w3.org/2000/svg"
	xmlns:svg="http://www.w3.org/2000/svg">
	<defs id="defs143" />
	<path d="m 12.09635,16.420143 c -0.237177,0 -0.474314,-0.0902 -0.654657,-0.27176 -0.361886,-0.36192 -0.361886,-0.94872 0,-1.31064 1.564971,-1.56512 1.564971,-4.11228 0,-5.6774055 -0.361886,-0.361955 -0.361886,-0.9487194 0,-1.3106594 0.361925,-0.36194 0.948629,-0.36194 1.310515,0 2.287503,2.2877849 2.287503,6.0097049 0,8.2987049 -0.180343,0.18036 -0.41748,0.27176 -0.654618,0.27176 z" id="path135" style="stroke-width:0" />
	<path d="m 9.5297155,20.647343 c -0.160584,0 -0.318688,-0.063 -0.437243,-0.18036 L 4.3321986,15.706143 H 2.1175737 c -0.3408996,0 -0.6175732,-0.27668 -0.6175732,-0.61764 V 8.9120255 c 0,-0.340933 0.2766736,-0.6176434 0.6175732,-0.6176434 h 2.2146249 l 4.7602739,-4.760824 c 0.176625,-0.176644 0.442162,-0.229764 0.67314,-0.133408 0.230978,0.096358 0.3816835,0.321176 0.3816835,0.570704 V 20.029663 c 0,0.24956 -0.1507055,0.4756 -0.3816835,0.57072 -0.07639,0.032 -0.156865,0.0468 -0.235897,0.0468 z" id="path137" style="stroke-width:0" />
</svg>
